STARTFONT 2.1
FONT -WRI-Mathematica3-Bold-R-Normal--14-140-75-75-p-80-Adobe-FontSpecific
SIZE 14 75 75
FONTBOUNDINGBOX 17 16 -2 -4
STARTPROPERTIES 16
FOUNDRY "WRI"
FAMILY_NAME "Mathematica3"
WEIGHT_NAME "Bold"
SLANT "R"
SETWIDTH_NAME "Normal"
PIXEL_SIZE 14
POINT_SIZE 140
RESOLUTION_X 75
RESOLUTION_Y 75
SPACING "p"
AVERAGE_WIDTH 80
CHARSET_REGISTRY "Adobe"
CHARSET_ENCODING "FontSpecific"
FONT_DESCENT 4
FONT_ASCENT 12
DEFAULT_CHAR 32
ENDPROPERTIES
CHARS 224
STARTCHAR Space
ENCODING 32
SWIDTH 189 0
DWIDTH 3 0
BBX 0 0 0 0
BITMAP
ENDCHAR
STARTCHAR Integral
ENCODING 33
SWIDTH 323 0
DWIDTH 5 0
BBX 7 13 1 -1
BITMAP
0e
10
10
10
30
30
30
30
30
30
20
20
e0
ENDCHAR
STARTCHAR ContourIntegral
ENCODING 34
SWIDTH 323 0
DWIDTH 5 0
BBX 7 13 1 -1
BITMAP
0e
10
10
10
78
74
b4
b4
78
30
20
20
e0
ENDCHAR
STARTCHAR DblContInteg
ENCODING 35
SWIDTH 605 0
DWIDTH 8 0
BBX 11 13 1 -1
BITMAP
0ee0
1100
1100
1300
7f80
7340
b340
b340
7380
3f00
2200
2200
fe00
ENDCHAR
STARTCHAR CntrClckwContInteg
ENCODING 36
SWIDTH 329 0
DWIDTH 5 0
BBX 7 13 1 -1
BITMAP
0e
10
10
10
78
74
b4
be
78
30
20
20
e0
ENDCHAR
STARTCHAR ClckwContInteg
ENCODING 37
SWIDTH 329 0
DWIDTH 5 0
BBX 7 13 1 -1
BITMAP
0e
10
10
10
78
b8
b4
f4
78
30
20
20
e0
ENDCHAR
STARTCHAR SquareContInteg
ENCODING 38
SWIDTH 323 0
DWIDTH 5 0
BBX 7 13 1 -1
BITMAP
0e
10
10
10
7c
b4
b4
b4
7c
30
20
20
e0
ENDCHAR
STARTCHAR Intersection
ENCODING 39
SWIDTH 694 0
DWIDTH 10 0
BBX 8 8 1 0
BITMAP
7c
46
83
81
81
81
81
81
ENDCHAR
STARTCHAR Union
ENCODING 40
SWIDTH 694 0
DWIDTH 10 0
BBX 8 8 1 0
BITMAP
81
81
81
81
81
c3
66
3c
ENDCHAR
STARTCHAR UnionPlus
ENCODING 41
SWIDTH 654 0
DWIDTH 9 0
BBX 8 8 1 0
BITMAP
81
81
91
91
bd
d3
76
3c
ENDCHAR
STARTCHAR SquareIntersection
ENCODING 42
SWIDTH 694 0
DWIDTH 10 0
BBX 8 8 1 0
BITMAP
ff
81
81
81
81
81
81
81
ENDCHAR
STARTCHAR SquareUnion
ENCODING 43
SWIDTH 694 0
DWIDTH 10 0
BBX 8 8 1 0
BITMAP
81
81
81
81
81
81
81
ff
ENDCHAR
STARTCHAR Wedge
ENCODING 44
SWIDTH 704 0
DWIDTH 10 0
BBX 9 8 0 0
BITMAP
0800
1400
1400
2200
2200
4100
4100
8080
ENDCHAR
STARTCHAR SmallWedge
ENCODING 45
SWIDTH 660 0
DWIDTH 9 0
BBX 7 5 1 1
BITMAP
10
28
6c
44
82
ENDCHAR
STARTCHAR Vee
ENCODING 46
SWIDTH 704 0
DWIDTH 10 0
BBX 9 8 0 0
BITMAP
8080
4100
4100
2200
2200
1400
1400
0800
ENDCHAR
STARTCHAR SmallVee
ENCODING 47
SWIDTH 660 0
DWIDTH 9 0
BBX 7 5 1 1
BITMAP
82
44
6c
28
10
ENDCHAR
STARTCHAR LTriangle
ENCODING 48
SWIDTH 681 0
DWIDTH 10 0
BBX 8 7 1 0
BITMAP
01
0f
39
c1
31
0f
01
ENDCHAR
STARTCHAR LTriangleEqual
ENCODING 49
SWIDTH 676 0
DWIDTH 9 0
BBX 8 8 1 0
BITMAP
01
0f
39
c1
31
0f
01
ff
ENDCHAR
STARTCHAR LTriangleBar
ENCODING 50
SWIDTH 838 0
DWIDTH 12 0
BBX 10 7 1 0
BITMAP
0140
0f40
3940
c140
3140
0f40
0140
ENDCHAR
STARTCHAR NotLTriangle
ENCODING 51
SWIDTH 681 0
DWIDTH 10 0
BBX 8 9 1 -1
BITMAP
02
07
0f
35
c5
39
0f
19
10
ENDCHAR
STARTCHAR NotLTriangleEqual
ENCODING 52
SWIDTH 677 0
DWIDTH 9 0
BBX 8 11 1 -2
BITMAP
04
05
0f
39
c9
31
1f
11
ff
20
20
ENDCHAR
STARTCHAR NotLTriangleBar
ENCODING 53
SWIDTH 838 0
DWIDTH 12 0
BBX 11 10 0 -1
BITMAP
0100
02a0
0320
0f20
7720
f520
1d20
0720
0d20
0800
ENDCHAR
STARTCHAR Bar
ENCODING 54
SWIDTH 240 0
DWIDTH 3 0
BBX 1 10 1 0
BITMAP
80
80
80
80
80
80
80
80
80
80
ENDCHAR
STARTCHAR Parallel
ENCODING 55
SWIDTH 478 0
DWIDTH 7 0
BBX 5 10 1 0
BITMAP
88
88
88
88
88
88
88
88
88
88
ENDCHAR
STARTCHAR TrplBar
ENCODING 56
SWIDTH 722 0
DWIDTH 10 0
BBX 9 10 1 0
BITMAP
8880
8880
8880
8880
8880
8880
8880
8880
8880
8880
ENDCHAR
STARTCHAR ShortBar
ENCODING 57
SWIDTH 240 0
DWIDTH 3 0
BBX 1 7 1 0
BITMAP
80
80
80
80
80
80
80
ENDCHAR
STARTCHAR ShortParallelBar
ENCODING 58
SWIDTH 478 0
DWIDTH 7 0
BBX 5 7 1 0
BITMAP
88
88
88
88
88
88
88
ENDCHAR
STARTCHAR BarExt
ENCODING 59
SWIDTH 240 0
DWIDTH 3 0
BBX 1 3 1 0
BITMAP
80
80
80
ENDCHAR
STARTCHAR Tangental
ENCODING 60
SWIDTH 574 0
DWIDTH 8 0
BBX 7 10 0 0
BITMAP
12
12
24
24
24
48
48
48
90
90
ENDCHAR
STARTCHAR NotTildeFullEqual
ENCODING 61
SWIDTH 675 0
DWIDTH 9 0
BBX 8 11 1 -3
BITMAP
0c
7a
9e
0c
18
ff
10
10
ff
20
20
ENDCHAR
STARTCHAR TildeEqual
ENCODING 62
SWIDTH 675 0
DWIDTH 9 0
BBX 8 5 1 1
BITMAP
72
9e
0c
00
ff
ENDCHAR
STARTCHAR EqualTilde
ENCODING 63
SWIDTH 675 0
DWIDTH 9 0
BBX 8 5 1 0
BITMAP
ff
00
61
9a
0e
ENDCHAR
STARTCHAR RTriangle
ENCODING 64
SWIDTH 681 0
DWIDTH 10 0
BBX 8 7 1 0
BITMAP
80
f0
9c
83
8c
f0
80
ENDCHAR
STARTCHAR RTriangleEqual
ENCODING 65
SWIDTH 676 0
DWIDTH 9 0
BBX 8 8 1 0
BITMAP
80
f0
8c
83
8c
f0
80
ff
ENDCHAR
STARTCHAR RTriangleBar
ENCODING 66
SWIDTH 838 0
DWIDTH 12 0
BBX 10 7 1 0
BITMAP
a000
bc00
a300
a0c0
a300
bc00
a000
ENDCHAR
STARTCHAR NotRTriangle
ENCODING 67
SWIDTH 681 0
DWIDTH 10 0
BBX 8 9 1 -1
BITMAP
08
98
f0
9c
b3
bc
f0
e0
40
ENDCHAR
STARTCHAR NotRTriangleEqual
ENCODING 68
SWIDTH 676 0
DWIDTH 9 0
BBX 8 11 1 -2
BITMAP
04
88
f8
8c
8b
9c
f0
90
ff
20
20
ENDCHAR
STARTCHAR NotRTriangleBar
ENCODING 69
SWIDTH 838 0
DWIDTH 12 0
BBX 10 10 1 -2
BITMAP
0400
a400
bc00
ab00
a8c0
b300
bc00
b000
2000
2000
ENDCHAR
STARTCHAR NotBar
ENCODING 70
SWIDTH 531 0
DWIDTH 7 0
BBX 7 10 0 0
BITMAP
10
10
16
1c
18
30
70
d0
10
10
ENDCHAR
STARTCHAR NotParallelBar
ENCODING 71
SWIDTH 753 0
DWIDTH 11 0
BBX 9 10 1 0
BITMAP
2200
2280
2300
2600
2e00
3a00
2200
6200
a200
2200
ENDCHAR
STARTCHAR NotTrplBar
ENCODING 72
SWIDTH 806 0
DWIDTH 11 0
BBX 9 9 1 0
BITMAP
4980
4980
4b80
4d80
4980
5980
6980
4980
c980
ENDCHAR
STARTCHAR ShortNotBar
ENCODING 73
SWIDTH 511 0
DWIDTH 7 0
BBX 5 7 1 0
BITMAP
20
28
30
20
60
a0
20
ENDCHAR
STARTCHAR ShortNotParallelBar
ENCODING 74
SWIDTH 598 0
DWIDTH 8 0
BBX 7 6 0 0
BITMAP
26
2e
3e
36
66
e6
ENDCHAR
STARTCHAR ParallelExt
ENCODING 75
SWIDTH 478 0
DWIDTH 7 0
BBX 5 2 1 0
BITMAP
88
88
ENDCHAR
STARTCHAR NotTilde
ENCODING 76
SWIDTH 667 0
DWIDTH 9 0
BBX 7 7 1 0
BITMAP
08
08
78
9a
1c
10
30
ENDCHAR
STARTCHAR NotTildeTilde
ENCODING 77
SWIDTH 667 0
DWIDTH 9 0
BBX 7 10 1 -2
BITMAP
04
0c
78
9e
0c
78
9a
1c
10
30
ENDCHAR
STARTCHAR NotTildeEqual
ENCODING 78
SWIDTH 675 0
DWIDTH 9 0
BBX 8 9 1 -1
BITMAP
04
0c
7a
9e
0c
18
ff
10
30
ENDCHAR
STARTCHAR NotEqualTilde
ENCODING 79
SWIDTH 675 0
DWIDTH 9 0
BBX 8 9 1 -1
BITMAP
04
0c
08
ff
08
79
9a
1e
30
ENDCHAR
STARTCHAR HumpEqual
ENCODING 80
SWIDTH 677 0
DWIDTH 9 0
BBX 8 6 1 1
BITMAP
18
ff
00
00
ff
ff
ENDCHAR
STARTCHAR HumpDownHump
ENCODING 81
SWIDTH 677 0
DWIDTH 9 0
BBX 8 7 1 0
BITMAP
18
ff
00
00
e7
ff
18
ENDCHAR
STARTCHAR NotHumpEqual
ENCODING 82
SWIDTH 677 0
DWIDTH 9 0
BBX 8 10 1 -1
BITMAP
08
08
18
ff
10
10
ff
ff
20
20
ENDCHAR
STARTCHAR NotHumpDownHump
ENCODING 83
SWIDTH 677 0
DWIDTH 9 0
BBX 8 11 1 -2
BITMAP
0c
0c
18
ff
18
10
f7
ff
38
20
20
ENDCHAR
STARTCHAR NotCongruent
ENCODING 84
SWIDTH 677 0
DWIDTH 9 0
BBX 8 11 1 -2
BITMAP
04
04
08
ff
08
ff
10
10
ff
20
20
ENDCHAR
STARTCHAR DotEqual
ENCODING 85
SWIDTH 677 0
DWIDTH 9 0
BBX 8 9 1 1
BITMAP
10
18
00
00
ff
00
00
ff
ff
ENDCHAR
STARTCHAR RoundImplies
ENCODING 86
SWIDTH 657 0
DWIDTH 9 0
BBX 8 4 1 2
BITMAP
fe
01
01
fe
ENDCHAR
STARTCHAR Equal
ENCODING 87
SWIDTH 448 0
DWIDTH 6 0
BBX 5 4 1 2
BITMAP
f8
00
00
f8
ENDCHAR
STARTCHAR TrplEqual
ENCODING 88
SWIDTH 1078 0
DWIDTH 15 0
BBX 14 4 1 2
BITMAP
f7bc
0000
0000
f7bc
ENDCHAR
STARTCHAR FrownEqual
ENCODING 89
SWIDTH 690 0
DWIDTH 10 0
BBX 8 5 1 1
BITMAP
7c
82
00
ff
ff
ENDCHAR
STARTCHAR SmileEqual
ENCODING 90
SWIDTH 690 0
DWIDTH 10 0
BBX 8 5 1 1
BITMAP
ff
00
01
c2
7c
ENDCHAR
STARTCHAR Frown
ENCODING 91
SWIDTH 690 0
DWIDTH 10 0
BBX 8 3 1 2
BITMAP
18
7e
81
ENDCHAR
STARTCHAR Smile
ENCODING 92
SWIDTH 690 0
DWIDTH 10 0
BBX 8 3 1 2
BITMAP
01
c6
3c
ENDCHAR
STARTCHAR FrownSmile
ENCODING 93
SWIDTH 690 0
DWIDTH 10 0
BBX 8 7 1 0
BITMAP
3c
46
81
00
01
e6
3c
ENDCHAR
STARTCHAR SmileFrown
ENCODING 94
SWIDTH 690 0
DWIDTH 10 0
BBX 8 7 1 0
BITMAP
01
c6
3c
00
3c
66
81
ENDCHAR
STARTCHAR NotSmileFrown
ENCODING 95
SWIDTH 690 0
DWIDTH 10 0
BBX 8 10 1 -2
BITMAP
0c
09
ce
3c
10
3c
76
b1
20
20
ENDCHAR
STARTCHAR LessLess
ENCODING 96
SWIDTH 1071 0
DWIDTH 15 0
BBX 13 7 1 0
BITMAP
0108
0e70
3180
c600
3180
0e70
0108
ENDCHAR
STARTCHAR DblLess
ENCODING 97
SWIDTH 839 0
DWIDTH 12 0
BBX 10 9 1 -1
BITMAP
0040
0380
0c40
7180
8200
7180
0c40
0380
0040
ENDCHAR
STARTCHAR LessSlantEqual
ENCODING 98
SWIDTH 676 0
DWIDTH 9 0
BBX 8 10 1 -2
BITMAP
01
0e
30
c0
30
0e
e1
38
0e
01
ENDCHAR
STARTCHAR LessFullEqual
ENCODING 99
SWIDTH 677 0
DWIDTH 9 0
BBX 8 12 1 -3
BITMAP
01
0e
30
c0
30
0e
01
00
ff
00
00
ff
ENDCHAR
STARTCHAR LessTilde
ENCODING 100
SWIDTH 676 0
DWIDTH 9 0
BBX 8 9 1 -1
BITMAP
01
0f
78
e0
3c
07
61
fa
8e
ENDCHAR
STARTCHAR NotLess
ENCODING 101
SWIDTH 681 0
DWIDTH 10 0
BBX 8 9 1 -1
BITMAP
04
0d
0e
38
d8
30
1e
31
20
ENDCHAR
STARTCHAR NotLessLess
ENCODING 102
SWIDTH 1071 0
DWIDTH 15 0
BBX 13 11 1 -2
BITMAP
0180
0100
0718
1d70
73c0
c700
3bc0
0e70
0718
0400
0400
ENDCHAR
STARTCHAR NotDblLess
ENCODING 103
SWIDTH 839 0
DWIDTH 12 0
BBX 10 11 1 -2
BITMAP
0200
0240
0780
1c40
7580
8600
7980
1c40
0b80
1040
1000
ENDCHAR
STARTCHAR NotLessEqual
ENCODING 104
SWIDTH 677 0
DWIDTH 9 0
BBX 8 11 1 -2
BITMAP
02
05
0e
34
c8
38
0e
11
ff
10
20
ENDCHAR
STARTCHAR NotLessSlantEqual
ENCODING 105
SWIDTH 676 0
DWIDTH 9 0
BBX 8 11 1 -2
BITMAP
02
05
0e
34
c8
38
0e
d1
30
1e
21
ENDCHAR
STARTCHAR NotLessFullEqual
ENCODING 106
SWIDTH 677 0
DWIDTH 9 0
BBX 8 13 1 -3
BITMAP
05
0e
38
c8
38
0e
19
10
ff
10
10
ff
20
ENDCHAR
STARTCHAR NotLessTilde
ENCODING 107
SWIDTH 676 0
DWIDTH 9 0
BBX 8 11 1 -2
BITMAP
04
05
0f
78
e8
3c
17
71
fa
be
20
ENDCHAR
STARTCHAR SquareSubset
ENCODING 108
SWIDTH 673 0
DWIDTH 9 0
BBX 8 8 1 -1
BITMAP
ff
80
80
80
80
80
80
ff
ENDCHAR
STARTCHAR SquareSubsetEqual
ENCODING 109
SWIDTH 673 0
DWIDTH 9 0
BBX 8 10 1 -2
BITMAP
ff
80
80
80
80
80
80
ff
00
ff
ENDCHAR
STARTCHAR NotSquareSubset
ENCODING 110
SWIDTH 673 0
DWIDTH 9 0
BBX 8 12 1 -2
BITMAP
04
04
ff
88
88
88
90
90
90
ff
20
20
ENDCHAR
STARTCHAR NotSqrSubsetEqual
ENCODING 111
SWIDTH 673 0
DWIDTH 9 0
BBX 8 14 1 -4
BITMAP
04
04
ff
88
88
90
90
90
90
ff
20
ff
40
40
ENDCHAR
STARTCHAR GrtrGrtr
ENCODING 112
SWIDTH 1071 0
DWIDTH 15 0
BBX 13 7 1 0
BITMAP
8400
7380
0c60
0318
0c60
7380
8400
ENDCHAR
STARTCHAR DblGrtr
ENCODING 113
SWIDTH 839 0
DWIDTH 12 0
BBX 10 9 1 -1
BITMAP
8000
7000
8c00
6380
10c0
6380
8c00
7000
8000
ENDCHAR
STARTCHAR GrtrSlantEqual
ENCODING 114
SWIDTH 676 0
DWIDTH 9 0
BBX 8 10 1 -2
BITMAP
80
70
0c
03
0c
70
83
1c
70
80
ENDCHAR
STARTCHAR GrtrFullEqual
ENCODING 115
SWIDTH 677 0
DWIDTH 9 0
BBX 8 12 1 -3
BITMAP
80
70
0c
03
0c
70
80
00
ff
00
00
ff
ENDCHAR
STARTCHAR GrtrTilde
ENCODING 116
SWIDTH 676 0
DWIDTH 9 0
BBX 8 9 1 -1
BITMAP
80
70
1c
03
0c
70
80
79
9e
ENDCHAR
STARTCHAR NotGrtr
ENCODING 117
SWIDTH 681 0
DWIDTH 10 0
BBX 8 9 1 -1
BITMAP
04
8c
78
0c
13
1c
70
90
20
ENDCHAR
STARTCHAR NotGrtrGrtr
ENCODING 118
SWIDTH 1071 0
DWIDTH 15 0
BBX 13 11 1 -2
BITMAP
0180
0100
c700
71c0
1f70
0718
1ee0
7780
c600
0400
0400
ENDCHAR
STARTCHAR NotDblGrtr
ENCODING 119
SWIDTH 839 0
DWIDTH 12 0
BBX 10 11 1 -2
BITMAP
0200
c600
7400
9e00
ef80
39c0
ef00
9c00
f800
9000
1000
ENDCHAR
STARTCHAR NotGrtrEqual
ENCODING 120
SWIDTH 677 0
DWIDTH 9 0
BBX 8 11 1 -2
BITMAP
04
84
78
0c
0b
1c
70
90
ff
20
20
ENDCHAR
STARTCHAR NotGrtrSlantEqual
ENCODING 121
SWIDTH 676 0
DWIDTH 9 0
BBX 8 11 1 -2
BITMAP
04
84
78
0c
0b
1c
70
93
1c
70
a0
ENDCHAR
STARTCHAR NotGrtrFullEqual
ENCODING 122
SWIDTH 677 0
DWIDTH 9 0
BBX 8 13 1 -3
BITMAP
84
74
0c
0b
0c
70
90
10
ff
20
20
ff
40
ENDCHAR
STARTCHAR NotGrtrTilde
ENCODING 123
SWIDTH 676 0
DWIDTH 9 0
BBX 8 11 1 -2
BITMAP
08
88
e8
1c
1f
38
f0
71
fa
ae
60
ENDCHAR
STARTCHAR SquareSprset
ENCODING 124
SWIDTH 676 0
DWIDTH 9 0
BBX 8 8 1 -1
BITMAP
ff
01
01
01
01
01
01
ff
ENDCHAR
STARTCHAR SquareSprsetEqual
ENCODING 125
SWIDTH 673 0
DWIDTH 9 0
BBX 8 10 1 -2
BITMAP
ff
01
01
01
01
01
01
ff
00
ff
ENDCHAR
STARTCHAR NotSquareSprset
ENCODING 126
SWIDTH 673 0
DWIDTH 9 0
BBX 8 11 1 -2
BITMAP
0c
08
ff
88
98
90
90
90
ff
ff
20
ENDCHAR
STARTCHAR DEL
ENCODING 127
SWIDTH 189 0
DWIDTH 3 0
BBX 0 0 0 0
BITMAP
ENDCHAR
STARTCHAR Prcds
ENCODING 128
SWIDTH 678 0
DWIDTH 10 0
BBX 8 9 1 -1
BITMAP
01
03
0e
38
f0
1c
06
03
01
ENDCHAR
STARTCHAR PrcdsEqual
ENCODING 129
SWIDTH 678 0
DWIDTH 10 0
BBX 8 9 1 0
BITMAP
01
03
0e
f8
3c
07
01
00
ff
ENDCHAR
STARTCHAR PrcdsSlantEqual
ENCODING 130
SWIDTH 678 0
DWIDTH 10 0
BBX 8 10 1 -2
BITMAP
03
06
7c
fc
06
e3
fd
0e
03
01
ENDCHAR
STARTCHAR PrcdsTilde
ENCODING 131
SWIDTH 665 0
DWIDTH 9 0
BBX 7 9 1 -1
BITMAP
02
06
7c
f8
0e
02
62
fa
8e
ENDCHAR
STARTCHAR NotPrcds
ENCODING 132
SWIDTH 678 0
DWIDTH 10 0
BBX 8 11 1 -2
BITMAP
04
0d
0b
0e
3c
f0
1c
16
33
21
20
ENDCHAR
STARTCHAR NotPrcdsEqual
ENCODING 133
SWIDTH 678 0
DWIDTH 10 0
BBX 8 11 1 -2
BITMAP
0d
0b
0e
f8
3c
17
11
30
ff
20
20
ENDCHAR
STARTCHAR NotPrcdsSlantEqual
ENCODING 134
SWIDTH 678 0
DWIDTH 10 0
BBX 8 11 1 -2
BITMAP
0c
0b
0e
7c
fc
1e
f3
fd
2e
23
21
ENDCHAR
STARTCHAR NotPrcdsTilde
ENCODING 135
SWIDTH 665 0
DWIDTH 9 0
BBX 7 11 1 -2
BITMAP
0c
0a
0e
7c
f8
1e
12
72
fa
ae
20
ENDCHAR
STARTCHAR LessGrtr
ENCODING 136
SWIDTH 682 0
DWIDTH 10 0
BBX 8 11 1 -2
BITMAP
03
1e
f0
f0
9e
e3
3c
07
1c
e0
80
ENDCHAR
STARTCHAR NotLessGrtr
ENCODING 137
SWIDTH 682 0
DWIDTH 10 0
BBX 8 13 1 -3
BITMAP
04
07
1e
f8
f8
9e
f3
3c
17
3c
e0
a0
20
ENDCHAR
STARTCHAR LessEqualGrtr
ENCODING 138
SWIDTH 676 0
DWIDTH 9 0
BBX 8 15 1 -4
BITMAP
03
1e
f0
f0
1e
03
00
ff
00
c0
78
0f
1e
f0
80
ENDCHAR
STARTCHAR Because
ENCODING 139
SWIDTH 629 0
DWIDTH 9 0
BBX 7 7 1 0
BITMAP
c6
c6
00
00
00
10
30
ENDCHAR
STARTCHAR NotSqrSprsetEqual
ENCODING 140
SWIDTH 673 0
DWIDTH 9 0
BBX 8 14 1 -4
BITMAP
04
0c
ff
0b
0b
1b
13
13
ff
ff
20
ff
20
60
ENDCHAR
STARTCHAR NotSubsetEqual
ENCODING 141
SWIDTH 697 0
DWIDTH 10 0
BBX 8 12 1 -3
BITMAP
04
3f
6c
c8
88
98
d0
7f
1f
30
ff
20
ENDCHAR
STARTCHAR NotSprset
ENCODING 142
SWIDTH 697 0
DWIDTH 10 0
BBX 8 11 1 -2
BITMAP
04
04
fc
0e
0b
19
13
13
fe
f8
20
ENDCHAR
STARTCHAR NotSprsetEqual
ENCODING 143
SWIDTH 697 0
DWIDTH 10 0
BBX 8 12 1 -3
BITMAP
04
fc
0e
0b
09
1b
12
fe
f8
30
ff
20
ENDCHAR
STARTCHAR Succds
ENCODING 144
SWIDTH 678 0
DWIDTH 10 0
BBX 8 8 1 0
BITMAP
80
c0
60
3c
0f
38
e0
80
ENDCHAR
STARTCHAR SuccdsEqual
ENCODING 145
SWIDTH 678 0
DWIDTH 10 0
BBX 8 8 1 0
BITMAP
80
e0
3f
3c
e0
80
00
ff
ENDCHAR
STARTCHAR SuccdsSlantEqual
ENCODING 146
SWIDTH 678 0
DWIDTH 10 0
BBX 8 9 1 -1
BITMAP
80
e0
3e
3e
e0
87
be
e0
80
ENDCHAR
STARTCHAR SuccdsTilde
ENCODING 147
SWIDTH 678 0
DWIDTH 10 0
BBX 8 9 1 -1
BITMAP
80
e0
3c
3f
e0
80
e1
fa
8e
ENDCHAR
STARTCHAR NotSuccds
ENCODING 148
SWIDTH 678 0
DWIDTH 10 0
BBX 8 11 1 -2
BITMAP
04
8c
c8
68
3c
1f
38
f0
b0
20
20
ENDCHAR
STARTCHAR NotSuccdsEqual
ENCODING 149
SWIDTH 678 0
DWIDTH 10 0
BBX 8 11 1 -2
BITMAP
0c
88
e8
3f
3c
f0
90
30
ff
20
20
ENDCHAR
STARTCHAR NotSuccdsSlantEqual
ENCODING 150
SWIDTH 678 0
DWIDTH 10 0
BBX 8 11 1 -2
BITMAP
04
8c
e8
3e
3e
f0
97
be
f0
a0
20
ENDCHAR
STARTCHAR NotSuccdsTilde
ENCODING 151
SWIDTH 678 0
DWIDTH 10 0
BBX 8 11 1 -2
BITMAP
04
8c
e8
3c
3f
f0
90
f1
fa
ae
20
ENDCHAR
STARTCHAR GrtrLess
ENCODING 152
SWIDTH 682 0
DWIDTH 10 0
BBX 8 11 1 -2
BITMAP
c0
70
0e
0e
78
c7
3c
e0
78
0f
01
ENDCHAR
STARTCHAR NotGrtrLess
ENCODING 153
SWIDTH 682 0
DWIDTH 10 0
BBX 8 13 1 -3
BITMAP
04
cc
78
0e
0e
78
d7
3c
f0
78
2f
21
60
ENDCHAR
STARTCHAR GrtrEqualLess
ENCODING 154
SWIDTH 676 0
DWIDTH 9 0
BBX 8 15 1 -4
BITMAP
c0
78
0e
1e
70
80
00
ff
00
07
1c
f0
70
0e
03
ENDCHAR
STARTCHAR Proportion
ENCODING 155
SWIDTH 629 0
DWIDTH 9 0
BBX 7 7 1 0
BITMAP
c6
c6
00
00
00
c6
c6
ENDCHAR
STARTCHAR Member
ENCODING 156
SWIDTH 697 0
DWIDTH 10 0
BBX 8 8 1 -1
BITMAP
fc
06
03
ff
01
03
fe
f8
ENDCHAR
STARTCHAR NotMember
ENCODING 157
SWIDTH 697 0
DWIDTH 10 0
BBX 8 11 1 -2
BITMAP
04
0c
fc
0e
0b
ff
11
13
fe
f8
20
ENDCHAR
STARTCHAR CircleMinus
ENCODING 158
SWIDTH 835 0
DWIDTH 12 0
BBX 10 10 1 -1
BITMAP
1e00
6180
4080
8040
ffc0
8040
8040
4080
6180
1e00
ENDCHAR
STARTCHAR CircleDot
ENCODING 159
SWIDTH 835 0
DWIDTH 12 0
BBX 10 10 1 -1
BITMAP
1e00
6180
4080
8040
8c40
8c40
8040
4080
6180
1e00
ENDCHAR
STARTCHAR EqualParallel
ENCODING 160
SWIDTH 765 0
DWIDTH 11 0
BBX 9 9 1 -1
BITMAP
2200
2200
ff80
2200
2200
ff80
2200
2200
2200
ENDCHAR
STARTCHAR MinusPlus
ENCODING 161
SWIDTH 683 0
DWIDTH 10 0
BBX 7 9 1 -1
BITMAP
fe
00
10
10
10
fe
10
10
10
ENDCHAR
STARTCHAR RTack
ENCODING 162
SWIDTH 487 0
DWIDTH 7 0
BBX 5 7 1 0
BITMAP
80
80
80
f8
80
80
80
ENDCHAR
STARTCHAR DblRTack
ENCODING 163
SWIDTH 487 0
DWIDTH 7 0
BBX 5 8 1 0
BITMAP
80
80
f8
80
80
f8
80
80
ENDCHAR
STARTCHAR LTack
ENCODING 164
SWIDTH 487 0
DWIDTH 7 0
BBX 5 7 1 0
BITMAP
08
08
08
f8
08
08
08
ENDCHAR
STARTCHAR DblLTack
ENCODING 165
SWIDTH 487 0
DWIDTH 7 0
BBX 5 8 1 0
BITMAP
08
08
f8
08
08
f8
08
08
ENDCHAR
STARTCHAR UpTee
ENCODING 166
SWIDTH 680 0
DWIDTH 10 0
BBX 7 5 1 1
BITMAP
10
10
10
10
fe
ENDCHAR
STARTCHAR DownTee
ENCODING 167
SWIDTH 680 0
DWIDTH 10 0
BBX 7 5 1 1
BITMAP
fe
10
10
10
10
ENDCHAR
STARTCHAR DownTeeLong
ENCODING 168
SWIDTH 752 0
DWIDTH 11 0
BBX 9 8 1 0
BITMAP
ff80
0800
0800
0800
0800
0800
0800
0800
ENDCHAR
STARTCHAR Between
ENCODING 169
SWIDTH 450 0
DWIDTH 6 0
BBX 4 12 1 -3
BITMAP
70
60
70
d0
90
90
d0
d0
70
60
60
10
ENDCHAR
STARTCHAR VertTilde
ENCODING 170
SWIDTH 305 0
DWIDTH 4 0
BBX 3 8 1 0
BITMAP
c0
40
60
40
c0
80
80
40
ENDCHAR
STARTCHAR HorizHourglass
ENCODING 171
SWIDTH 600 0
DWIDTH 8 0
BBX 7 5 1 1
BITMAP
82
ee
ba
ee
82
ENDCHAR
STARTCHAR RightAngle
ENCODING 172
SWIDTH 505 0
DWIDTH 7 0
BBX 5 8 1 0
BITMAP
80
80
80
80
80
e0
a0
f8
ENDCHAR
STARTCHAR MeasuredAngle
ENCODING 173
SWIDTH 512 0
DWIDTH 7 0
BBX 5 8 1 0
BITMAP
20
20
40
40
40
60
90
f8
ENDCHAR
STARTCHAR SphericalAngle
ENCODING 174
SWIDTH 555 0
DWIDTH 8 0
BBX 6 7 1 0
BITMAP
04
1c
38
c8
38
1c
04
ENDCHAR
STARTCHAR Diameter
ENCODING 175
SWIDTH 737 0
DWIDTH 10 0
BBX 8 8 1 0
BITMAP
3d
63
c5
8d
99
b1
63
fe
ENDCHAR
STARTCHAR Mho
ENCODING 176
SWIDTH 748 0
DWIDTH 10 0
BBX 10 9 0 0
BITMAP
f1c0
9100
2180
6080
60c0
60c0
6080
3180
1f00
ENDCHAR
STARTCHAR NotExists
ENCODING 177
SWIDTH 627 0
DWIDTH 9 0
BBX 7 13 1 -2
BITMAP
0c
08
7e
0e
1e
16
3e
36
26
26
fe
60
40
ENDCHAR
STARTCHAR CapDigamma
ENCODING 178
SWIDTH 589 0
DWIDTH 8 0
BBX 7 9 1 0
BITMAP
fe
c2
c0
c0
fc
c4
c0
c0
e0
ENDCHAR
STARTCHAR CapStigma
ENCODING 179
SWIDTH 670 0
DWIDTH 9 0
BBX 9 12 0 -3
BITMAP
1f80
3000
2000
4000
4000
c000
6000
7800
3c00
0c00
0400
1800
ENDCHAR
STARTCHAR CapKoppa
ENCODING 180
SWIDTH 637 0
DWIDTH 9 0
BBX 9 10 0 0
BITMAP
0800
7600
4100
c180
c180
5900
3a00
1c00
1800
1800
ENDCHAR
STARTCHAR CapSampi
ENCODING 181
SWIDTH 718 0
DWIDTH 10 0
BBX 9 9 1 0
BITMAP
7e00
c300
0300
0780
0d80
1b80
3300
5300
fc00
ENDCHAR
STARTCHAR CurlyEpsilon
ENCODING 182
SWIDTH 513 0
DWIDTH 7 0
BBX 7 6 0 0
BITMAP
3e
62
38
40
c6
7c
ENDCHAR
STARTCHAR FinalSigma
ENCODING 183
SWIDTH 539 0
DWIDTH 8 0
BBX 7 9 0 -3
BITMAP
3e
62
42
c6
c4
e8
90
f8
78
ENDCHAR
STARTCHAR Digamma
ENCODING 184
SWIDTH 490 0
DWIDTH 7 0
BBX 6 9 0 -3
BITMAP
3c
60
7c
60
40
c0
c0
80
80
ENDCHAR
STARTCHAR Stigma
ENCODING 185
SWIDTH 568 0
DWIDTH 8 0
BBX 8 9 0 -3
BITMAP
3f
40
80
c0
70
3c
0c
0c
10
ENDCHAR
STARTCHAR Koppa
ENCODING 186
SWIDTH 495 0
DWIDTH 7 0
BBX 7 7 0 -1
BITMAP
7c
c6
c6
c4
78
20
20
ENDCHAR
STARTCHAR Sampi
ENCODING 187
SWIDTH 440 0
DWIDTH 6 0
BBX 6 6 0 0
BITMAP
f8
1c
7c
a8
50
20
ENDCHAR
STARTCHAR Bet
ENCODING 188
SWIDTH 651 0
DWIDTH 9 0
BBX 9 9 0 0
BITMAP
7f00
7f00
0100
0100
0100
0100
7f80
7f80
ff00
ENDCHAR
STARTCHAR Gimel
ENCODING 189
SWIDTH 329 0
DWIDTH 5 0
BBX 4 10 0 0
BITMAP
40
70
70
10
10
10
10
10
70
e0
ENDCHAR
STARTCHAR Dalet
ENCODING 190
SWIDTH 549 0
DWIDTH 8 0
BBX 7 9 0 0
BITMAP
fe
7e
02
02
02
02
02
02
02
ENDCHAR
STARTCHAR Aleph
ENCODING 191
SWIDTH 504 0
DWIDTH 7 0
BBX 6 6 0 0
BITMAP
74
18
10
18
38
cc
ENDCHAR
STARTCHAR CapYAcute
ENCODING 192
SWIDTH 754 0
DWIDTH 11 0
BBX 8 12 1 0
BITMAP
06
0c
00
e1
63
32
34
1c
18
18
18
1c
ENDCHAR
STARTCHAR YAcute
ENCODING 193
SWIDTH 552 0
DWIDTH 8 0
BBX 6 12 1 -3
BITMAP
18
10
00
c4
48
68
28
30
30
20
a0
c0
ENDCHAR
STARTCHAR CapEth
ENCODING 194
SWIDTH 762 0
DWIDTH 11 0
BBX 10 9 0 0
BITMAP
7f00
2180
20c0
20c0
f8c0
20c0
20c0
2180
7e00
ENDCHAR
STARTCHAR Eth
ENCODING 195
SWIDTH 539 0
DWIDTH 8 0
BBX 7 9 0 0
BITMAP
3c
78
0c
7c
46
c6
c6
66
3c
ENDCHAR
STARTCHAR CapThorn
ENCODING 196
SWIDTH 596 0
DWIDTH 8 0
BBX 7 9 1 0
BITMAP
e0
f8
c6
c6
c6
c6
f8
c0
e0
ENDCHAR
STARTCHAR Thorn
ENCODING 197
SWIDTH 541 0
DWIDTH 8 0
BBX 6 12 1 -3
BITMAP
c0
c0
c0
f8
cc
cc
cc
cc
c8
f0
c0
c0
ENDCHAR
STARTCHAR CapLSlash
ENCODING 198
SWIDTH 643 0
DWIDTH 9 0
BBX 8 9 1 0
BITMAP
60
68
70
60
60
60
e0
61
7f
ENDCHAR
STARTCHAR LSlash
ENCODING 199
SWIDTH 397 0
DWIDTH 6 0
BBX 5 10 0 0
BITMAP
10
30
30
38
30
30
70
b0
30
30
ENDCHAR
STARTCHAR DownQuestion
ENCODING 200
SWIDTH 466 0
DWIDTH 7 0
BBX 5 10 1 -3
BITMAP
20
60
00
20
40
40
c0
98
98
f0
ENDCHAR
STARTCHAR Cent
ENCODING 201
SWIDTH 500 0
DWIDTH 7 0
BBX 6 9 0 -1
BITMAP
08
08
74
44
c0
c0
64
3c
08
ENDCHAR
STARTCHAR Nbspace
ENCODING 202
SWIDTH 189 0
DWIDTH 3 0
BBX 0 0 0 0
BITMAP
ENDCHAR
STARTCHAR Sterling
ENCODING 203
SWIDTH 641 0
DWIDTH 9 0
BBX 7 9 1 0
BITMAP
1e
36
30
30
f8
30
20
f2
dc
ENDCHAR
STARTCHAR DownExclamation
ENCODING 204
SWIDTH 333 0
DWIDTH 5 0
BBX 2 9 1 -3
BITMAP
c0
00
40
40
40
40
c0
c0
c0
ENDCHAR
STARTCHAR Section
ENCODING 205
SWIDTH 496 0
DWIDTH 7 0
BBX 5 11 1 -2
BITMAP
70
d8
60
f0
98
88
c8
70
58
d8
70
ENDCHAR
STARTCHAR Paragraph
ENCODING 206
SWIDTH 584 0
DWIDTH 8 0
BBX 6 12 1 -3
BITMAP
7c
dc
dc
dc
dc
3c
1c
1c
1c
1c
1c
1c
ENDCHAR
STARTCHAR Yen
ENCODING 207
SWIDTH 645 0
DWIDTH 9 0
BBX 7 9 1 0
BITMAP
c2
64
64
38
fe
10
fe
10
38
ENDCHAR
STARTCHAR Micro
ENCODING 208
SWIDTH 555 0
DWIDTH 8 0
BBX 7 9 0 -3
BITMAP
4c
4c
4c
4c
4c
76
40
40
c0
ENDCHAR
STARTCHAR HBar
ENCODING 209
SWIDTH 555 0
DWIDTH 8 0
BBX 6 10 1 0
BITMAP
10
30
38
e0
7c
6c
cc
c8
d8
9c
ENDCHAR
STARTCHAR DotlessI
ENCODING 210
SWIDTH 291 0
DWIDTH 4 0
BBX 3 6 0 0
BITMAP
e0
60
60
60
60
60
ENDCHAR
STARTCHAR ItalDotlessI
ENCODING 211
SWIDTH 268 0
DWIDTH 4 0
BBX 3 6 0 0
BITMAP
60
60
60
40
40
e0
ENDCHAR
STARTCHAR DotlessJ
ENCODING 212
SWIDTH 295 0
DWIDTH 4 0
BBX 4 9 -1 -3
BITMAP
30
10
10
10
10
10
10
d0
60
ENDCHAR
STARTCHAR ItalDotlessJ
ENCODING 213
SWIDTH 410 0
DWIDTH 6 0
BBX 6 9 -1 -3
BITMAP
0c
0c
08
18
18
18
10
f0
60
ENDCHAR
STARTCHAR Dagger
ENCODING 214
SWIDTH 581 0
DWIDTH 8 0
BBX 8 11 0 -1
BITMAP
08
18
08
ff
53
08
18
18
08
10
10
ENDCHAR
STARTCHAR DoubleDagger
ENCODING 215
SWIDTH 513 0
DWIDTH 7 0
BBX 7 11 0 -2
BITMAP
10
10
7e
56
10
18
10
fe
50
10
10
ENDCHAR
STARTCHAR Degree
ENCODING 216
SWIDTH 404 0
DWIDTH 6 0
BBX 5 5 0 5
BITMAP
30
48
c8
48
30
ENDCHAR
STARTCHAR Flat
ENCODING 217
SWIDTH 396 0
DWIDTH 6 0
BBX 5 10 0 0
BITMAP
c0
c0
c0
f0
d8
d8
d8
d8
d0
e0
ENDCHAR
STARTCHAR Natural
ENCODING 218
SWIDTH 374 0
DWIDTH 5 0
BBX 5 13 0 -3
BITMAP
c0
c0
c0
f8
f8
c8
c8
c8
d8
f8
c8
08
08
ENDCHAR
STARTCHAR Sharp
ENCODING 219
SWIDTH 419 0
DWIDTH 6 0
BBX 5 14 0 -3
BITMAP
08
48
48
48
78
e8
48
48
48
78
e8
c8
48
40
ENDCHAR
STARTCHAR QuestionBox
ENCODING 220
SWIDTH 913 0
DWIDTH 13 0
BBX 11 10 1 0
BITMAP
ffe0
8e60
8960
8360
8460
8460
8060
8460
8060
ffe0
ENDCHAR
STARTCHAR ErrorIndicator
ENCODING 221
SWIDTH 868 0
DWIDTH 12 0
BBX 10 7 1 0
BITMAP
ffc0
8040
8c40
9240
a140
80c0
ffc0
ENDCHAR
STARTCHAR Angstrom
ENCODING 222
SWIDTH 609 0
DWIDTH 9 0
BBX 8 10 0 0
BITMAP
18
24
18
18
2c
2c
3e
46
46
83
ENDCHAR
STARTCHAR LamdaSlash
ENCODING 223
SWIDTH 523 0
DWIDTH 7 0
BBX 7 10 0 0
BITMAP
20
10
1e
38
18
28
28
48
4c
c6
ENDCHAR
STARTCHAR SolidSquare
ENCODING 224
SWIDTH 714 0
DWIDTH 10 0
BBX 8 8 1 0
BITMAP
ff
ff
ff
ff
ff
ff
ff
ff
ENDCHAR
STARTCHAR Square
ENCODING 225
SWIDTH 714 0
DWIDTH 10 0
BBX 8 8 1 0
BITMAP
ff
81
81
81
81
81
81
ff
ENDCHAR
STARTCHAR MedSolidSquare
ENCODING 226
SWIDTH 519 0
DWIDTH 7 0
BBX 6 6 1 1
BITMAP
fc
fc
fc
fc
fc
fc
ENDCHAR
STARTCHAR MedEmptySquare
ENCODING 227
SWIDTH 519 0
DWIDTH 7 0
BBX 6 6 1 1
BITMAP
fc
84
84
84
84
fc
ENDCHAR
STARTCHAR SmallSolidSquare
ENCODING 228
SWIDTH 374 0
DWIDTH 5 0
BBX 4 4 1 2
BITMAP
f0
f0
f0
f0
ENDCHAR
STARTCHAR SmallEmptySquare
ENCODING 229
SWIDTH 374 0
DWIDTH 5 0
BBX 4 4 1 2
BITMAP
f0
90
90
f0
ENDCHAR
STARTCHAR SolidCircle
ENCODING 230
SWIDTH 759 0
DWIDTH 11 0
BBX 9 9 1 -1
BITMAP
3e00
7f00
ff80
ff80
ff80
ff80
ff80
7f00
3e00
ENDCHAR
STARTCHAR Circle
ENCODING 231
SWIDTH 759 0
DWIDTH 11 0
BBX 9 9 1 1
BITMAP
3e00
6300
c180
8080
8080
8080
c180
6300
3e00
ENDCHAR
STARTCHAR Bullet
ENCODING 232
SWIDTH 520 0
DWIDTH 7 0
BBX 6 6 1 1
BITMAP
78
fc
fc
fc
fc
78
ENDCHAR
STARTCHAR SmallCircle
ENCODING 233
SWIDTH 520 0
DWIDTH 7 0
BBX 6 6 1 1
BITMAP
78
cc
84
84
cc
78
ENDCHAR
STARTCHAR Dot
ENCODING 234
SWIDTH 354 0
DWIDTH 5 0
BBX 4 4 0 2
BITMAP
60
f0
f0
60
ENDCHAR
STARTCHAR OpenDot
ENCODING 235
SWIDTH 424 0
DWIDTH 6 0
BBX 5 5 1 2
BITMAP
70
88
88
88
70
ENDCHAR
STARTCHAR MedSolidDiamond
ENCODING 236
SWIDTH 744 0
DWIDTH 10 0
BBX 9 9 1 -1
BITMAP
0800
1c00
3e00
7f00
ff80
7f00
3e00
1c00
0800
ENDCHAR
STARTCHAR MedEmptyDiamond
ENCODING 237
SWIDTH 624 0
DWIDTH 9 0
BBX 7 9 1 -1
BITMAP
10
38
28
44
c6
44
28
38
10
ENDCHAR
STARTCHAR SmallSolidDiamond
ENCODING 238
SWIDTH 512 0
DWIDTH 7 0
BBX 6 7 1 0
BITMAP
20
70
f8
fc
f8
70
20
ENDCHAR
STARTCHAR SmallEmptyDiamond
ENCODING 239
SWIDTH 512 0
DWIDTH 7 0
BBX 7 7 0 0
BITMAP
10
38
6c
c6
6c
38
10
ENDCHAR
STARTCHAR SolidRectangle
ENCODING 240
SWIDTH 528 0
DWIDTH 7 0
BBX 6 8 1 0
BITMAP
fc
fc
fc
fc
fc
fc
fc
fc
ENDCHAR
STARTCHAR Rectangle
ENCODING 241
SWIDTH 528 0
DWIDTH 7 0
BBX 6 8 1 0
BITMAP
fc
84
84
84
84
84
84
fc
ENDCHAR
STARTCHAR SolidUpTriangle
ENCODING 242
SWIDTH 699 0
DWIDTH 10 0
BBX 9 8 0 0
BITMAP
0800
0800
1c00
1c00
3e00
7f00
7f00
ff80
ENDCHAR
STARTCHAR UpTriangle
ENCODING 243
SWIDTH 699 0
DWIDTH 10 0
BBX 9 8 0 0
BITMAP
0800
0800
1400
1400
2200
6300
4100
ff80
ENDCHAR
STARTCHAR SolidDownTriangle
ENCODING 244
SWIDTH 699 0
DWIDTH 10 0
BBX 9 8 0 0
BITMAP
ff80
7f00
7f00
3e00
1c00
1c00
0800
0800
ENDCHAR
STARTCHAR DownTriangle
ENCODING 245
SWIDTH 699 0
DWIDTH 10 0
BBX 9 8 1 0
BITMAP
ff80
4100
6100
2200
1400
1400
0800
0800
ENDCHAR
STARTCHAR SolidDiamond
ENCODING 246
SWIDTH 500 0
DWIDTH 7 0
BBX 5 9 1 -1
BITMAP
20
20
70
f8
f8
f8
70
20
20
ENDCHAR
STARTCHAR Star6
ENCODING 247
SWIDTH 600 0
DWIDTH 8 0
BBX 7 9 1 -1
BITMAP
10
10
fe
7c
7c
7c
fe
10
10
ENDCHAR
STARTCHAR Star
ENCODING 248
SWIDTH 820 0
DWIDTH 11 0
BBX 9 9 1 -1
BITMAP
0800
0800
0c00
ff80
3e00
1e00
3600
2200
0100
ENDCHAR
STARTCHAR Bullet3
ENCODING 249
SWIDTH 676 0
DWIDTH 9 0
BBX 9 9 0 0
BITMAP
ff80
ff80
ff80
ff80
ff80
ff80
fe80
fc80
ff80
ENDCHAR
STARTCHAR Bullet4
ENCODING 250
SWIDTH 676 0
DWIDTH 9 0
BBX 9 9 0 0
BITMAP
ff80
ff80
ff80
ff80
ff80
ff80
fc80
fc80
ff80
ENDCHAR
STARTCHAR Euler
ENCODING 251
SWIDTH 531 0
DWIDTH 7 0
BBX 7 9 0 0
BITMAP
7c
40
40
60
30
60
e0
62
3e
ENDCHAR
STARTCHAR ImagJ
ENCODING 252
SWIDTH 387 0
DWIDTH 5 0
BBX 7 12 -2 -3
BITMAP
06
00
00
0e
0e
0c
0c
1c
1c
18
18
f0
ENDCHAR
STARTCHAR DoubleGamma
ENCODING 253
SWIDTH 580 0
DWIDTH 8 0
BBX 8 9 0 -3
BITMAP
73
9a
14
14
18
18
30
70
60
ENDCHAR
STARTCHAR DoublePi
ENCODING 254
SWIDTH 620 0
DWIDTH 9 0
BBX 8 6 0 0
BITMAP
7f
b2
36
34
66
e6
ENDCHAR
STARTCHAR DoubleScriptCapD
ENCODING 255
SWIDTH 855 0
DWIDTH 12 0
BBX 12 9 0 0
BITMAP
3fc0
2860
3870
5870
5870
3060
7060
b0c0
ff00
ENDCHAR
ENDFONT
